<svg width="16" height="27" viewBox="0 0 16 27" fill="none" xmlns="http://www.w3.org/2000/svg">
<path d="M8 21.9375C7.50223 21.9375 7.11111 21.5662 7.11111 21.0938V5.90625C7.11111 5.43375 7.50223 5.0625 8 5.0625C8.49778 5.0625 8.88889 5.43375 8.88889 5.90625V21.0938C8.88889 21.5662 8.49778 21.9375 8 21.9375Z" fill="white"/>
<path d="M8 23.625C7.88342 23.6263 7.76783 23.6045 7.66067 23.5609C7.55351 23.5173 7.45715 23.4529 7.37778 23.3719L1.15555 17.4656C0.799997 17.1281 0.799997 16.605 1.15555 16.2675C1.51111 15.93 2.06222 15.93 2.41777 16.2675L8.01778 21.5831L13.6178 16.2675C13.9733 15.93 14.5244 15.93 14.88 16.2675C15.2356 16.605 15.2356 17.1281 14.88 17.4656L8.65777 23.3719C8.48 23.5406 8.24889 23.625 8.03555 23.625H8Z" fill="white"/>
</svg>
