<svg width="35" height="40" viewBox="0 0 35 40" fill="none" xmlns="http://www.w3.org/2000/svg">
<path d="M33.1875 17.6934L5.04686 0.480469C4.63174 0.225854 4.15616 0.0867204 3.66927 0.0774496C3.18237 0.0681787 2.70184 0.189107 2.27733 0.427735C1.85509 0.659615 1.50333 1.00126 1.25924 1.41656C1.01515 1.83186 0.887782 2.30539 0.89061 2.78711V37.2129C0.887782 37.6946 1.01515 38.1681 1.25924 38.5834C1.50333 38.9987 1.85509 39.3404 2.27733 39.5723C2.70184 39.8109 3.18237 39.9318 3.66927 39.9226C4.15616 39.9133 4.63174 39.7741 5.04686 39.5195L33.1875 22.3066C33.5836 22.0659 33.911 21.7272 34.1383 21.3232C34.3655 20.9192 34.4849 20.4635 34.4849 20C34.4849 19.5365 34.3655 19.0808 34.1383 18.6768C33.911 18.2728 33.5836 17.9341 33.1875 17.6934ZM31.9648 20.3066L3.8203 37.5195C3.75954 37.556 3.69 37.5753 3.61913 37.5753C3.54825 37.5753 3.47871 37.556 3.41795 37.5195C3.35909 37.4908 3.30952 37.4461 3.27497 37.3905C3.24041 37.3348 3.22227 37.2706 3.22264 37.2051V2.78711C3.22227 2.72162 3.24041 2.65736 3.27497 2.60173C3.30952 2.54609 3.35909 2.50135 3.41795 2.47266C3.48114 2.43742 3.55266 2.41988 3.62499 2.42187C3.69431 2.42436 3.76172 2.44526 3.8203 2.48242L31.9648 19.6934C32.0183 19.7247 32.0627 19.7695 32.0935 19.8233C32.1243 19.8771 32.1405 19.938 32.1405 20C32.1405 20.062 32.1243 20.1229 32.0935 20.1767C32.0627 20.2305 32.0183 20.2753 31.9648 20.3066Z" fill="black"/>
</svg>
