<svg width="32" height="32" viewBox="0 0 32 32" fill="none" xmlns="http://www.w3.org/2000/svg">
<path d="M31 9.33333V22.6667C31 24.8768 30.122 26.9964 28.5592 28.5592C26.9964 30.122 24.8768 31 22.6667 31H9.33333C7.1232 31 5.00358 30.122 3.44078 28.5592C1.87797 26.9964 1 24.8768 1 22.6667V9.33333C1 7.1232 1.87797 5.00358 3.44078 3.44078C5.00358 1.87797 7.1232 1 9.33333 1H22.6667C24.8768 1 26.9964 1.87797 28.5592 3.44078C30.122 5.00358 31 7.1232 31 9.33333Z" stroke="#EF6D14" stroke-width="1.875" stroke-linecap="round" stroke-linejoin="round"/>
<path d="M12.6667 16C11.6778 16 10.7111 16.2932 9.88884 16.8427C9.06659 17.3921 8.42573 18.173 8.04729 19.0866C7.66885 20.0002 7.56984 21.0055 7.76276 21.9754C7.95569 22.9454 8.43189 23.8363 9.13116 24.5355C9.83042 25.2348 10.7213 25.711 11.6912 25.9039C12.6611 26.0969 13.6665 25.9978 14.5801 25.6194C15.4937 25.241 16.2746 24.6001 16.824 23.7778C17.3734 22.9556 17.6667 21.9889 17.6667 21V6C18.2217 7.66667 20.3334 11 24.3334 11" stroke="#EF6D14" stroke-width="1.875" stroke-linecap="round" stroke-linejoin="round"/>
</svg>
