<svg width="20" height="20" viewBox="0 0 20 20" fill="none" xmlns="http://www.w3.org/2000/svg">
<path d="M15.9375 10C15.9372 9.04707 15.7074 8.10824 15.2674 7.26294C14.8275 6.41763 14.1905 5.69073 13.4102 5.14375L12.9008 2.33125C12.8613 2.11538 12.7473 1.92022 12.5787 1.77974C12.4101 1.63927 12.1976 1.56239 11.9781 1.5625H8.02187C7.8022 1.56246 7.58949 1.63956 7.42086 1.78034C7.25223 1.92113 7.13839 2.11666 7.09922 2.33281L6.58984 5.14531C5.80925 5.69203 5.17195 6.41887 4.73196 7.26423C4.29196 8.10959 4.06223 9.04855 4.06223 10.0016C4.06223 10.9546 4.29196 11.8935 4.73196 12.7389C5.17195 13.5843 5.80925 14.3111 6.58984 14.8578L7.09922 17.6703C7.13904 17.8859 7.25316 18.0807 7.42173 18.2209C7.59029 18.361 7.80265 18.4377 8.02187 18.4375H11.9781C12.1978 18.4375 12.4105 18.3604 12.5791 18.2197C12.7478 18.0789 12.8616 17.8833 12.9008 17.6672L13.4102 14.8547C14.1902 14.3079 14.8272 13.5812 15.2671 12.7362C15.707 11.8912 15.937 10.9527 15.9375 10ZM7.71406 2.44453C7.72707 2.37239 7.76503 2.30712 7.8213 2.26013C7.87757 2.21314 7.94857 2.18744 8.02187 2.1875H11.9781C12.0514 2.18744 12.1224 2.21314 12.1787 2.26013C12.235 2.30712 12.2729 2.37239 12.2859 2.44453L12.6969 4.71016C11.8626 4.28295 10.9388 4.06016 10.0016 4.06016C9.06431 4.06016 8.14048 4.28295 7.30625 4.71016L7.71406 2.44453ZM12.2859 17.5555C12.2729 17.6276 12.235 17.6929 12.1787 17.7399C12.1224 17.7869 12.0514 17.8126 11.9781 17.8125H8.02187C7.94857 17.8126 7.87757 17.7869 7.8213 17.7399C7.76503 17.6929 7.72707 17.6276 7.71406 17.5555L7.30312 15.2898C8.13735 15.7171 9.06118 15.9398 9.99844 15.9398C10.9357 15.9398 11.8595 15.7171 12.6937 15.2898L12.2859 17.5555ZM10 15.3125C8.94929 15.3125 7.92217 15.0009 7.04853 14.4172C6.1749 13.8334 5.49398 13.0037 5.09189 12.033C4.6898 11.0623 4.58459 9.99411 4.78958 8.96358C4.99456 7.93306 5.50053 6.98646 6.24349 6.2435C6.98646 5.50053 7.93306 4.99456 8.96358 4.78958C9.99411 4.58459 11.0623 4.6898 12.033 5.09189C13.0037 5.49398 13.8334 6.1749 14.4172 7.04853C15.0009 7.92217 15.3125 8.94929 15.3125 10C15.3111 11.4085 14.7509 12.7589 13.7549 13.7549C12.7589 14.7509 11.4085 15.3111 10 15.3125ZM13.4375 10C13.4375 10.0829 13.4046 10.1624 13.346 10.221C13.2874 10.2796 13.2079 10.3125 13.125 10.3125H10C9.91712 10.3125 9.83763 10.2796 9.77903 10.221C9.72042 10.1624 9.6875 10.0829 9.6875 10V6.875C9.6875 6.79212 9.72042 6.71263 9.77903 6.65403C9.83763 6.59542 9.91712 6.5625 10 6.5625C10.0829 6.5625 10.1624 6.59542 10.221 6.65403C10.2796 6.71263 10.3125 6.79212 10.3125 6.875V9.6875H13.125C13.2079 9.6875 13.2874 9.72042 13.346 9.77903C13.4046 9.83763 13.4375 9.91712 13.4375 10Z" fill="black"/>
</svg>
